<svg width="207" height="34" viewBox="0 0 207 34" fill="none" xmlns="http://www.w3.org/2000/svg">
<path d="M6.208 20.24L5.884 13.508L17.944 0.799998H24.424L13.552 12.5L10.312 15.956L6.208 20.24ZM0.988 26V0.799998H6.784V26H0.988ZM18.232 26L9.268 15.02L13.084 10.88L25.036 26H18.232ZM38.6986 26V22.22L38.3386 21.392V14.624C38.3386 13.424 37.9666 12.488 37.2226 11.816C36.5026 11.144 35.3866 10.808 33.8746 10.808C32.8426 10.808 31.8226 10.976 30.8146 11.312C29.8306 11.624 28.9906 12.056 28.2946 12.608L26.2786 8.684C27.3346 7.94 28.6066 7.364 30.0946 6.956C31.5826 6.548 33.0946 6.344 34.6306 6.344C37.5826 6.344 39.8746 7.04 41.5066 8.432C43.1386 9.824 43.9546 11.996 43.9546 14.948V26H38.6986ZM32.7946 26.288C31.2826 26.288 29.9866 26.036 28.9066 25.532C27.8266 25.004 26.9986 24.296 26.4226 23.408C25.8466 22.52 25.5586 21.524 25.5586 20.42C25.5586 19.268 25.8346 18.26 26.3866 17.396C26.9626 16.532 27.8626 15.86 29.0866 15.38C30.3106 14.876 31.9066 14.624 33.8746 14.624H39.0226V17.9H34.4866C33.1666 17.9 32.2546 18.116 31.7506 18.548C31.2706 18.98 31.0306 19.52 31.0306 20.168C31.0306 20.888 31.3066 21.464 31.8586 21.896C32.4346 22.304 33.2146 22.508 34.1986 22.508C35.1346 22.508 35.9746 22.292 36.7186 21.86C37.4626 21.404 38.0026 20.744 38.3386 19.88L39.2026 22.472C38.7946 23.72 38.0506 24.668 36.9706 25.316C35.8906 25.964 34.4986 26.288 32.7946 26.288ZM60.8093 6.344C62.3453 6.344 63.7133 6.656 64.9133 7.28C66.1373 7.88 67.0973 8.816 67.7933 10.088C68.4893 11.336 68.8373 12.944 68.8373 14.912V26H63.2213V15.776C63.2213 14.216 62.8733 13.064 62.1773 12.32C61.5053 11.576 60.5453 11.204 59.2973 11.204C58.4093 11.204 57.6053 11.396 56.8853 11.78C56.1893 12.14 55.6373 12.704 55.2293 13.472C54.8453 14.24 54.6533 15.224 54.6533 16.424V26H49.0373V6.632H54.4013V11.996L53.3933 10.376C54.0893 9.08 55.0853 8.084 56.3813 7.388C57.6773 6.692 59.1533 6.344 60.8093 6.344ZM83.1766 33.272C81.3526 33.272 79.5886 33.044 77.8846 32.588C76.2046 32.156 74.8006 31.496 73.6726 30.608L75.9046 26.576C76.7206 27.248 77.7526 27.776 79.0006 28.16C80.2726 28.568 81.5206 28.772 82.7446 28.772C84.7366 28.772 86.1766 28.328 87.0646 27.44C87.9766 26.552 88.4326 25.232 88.4326 23.48V20.564L88.7926 15.704L88.7206 10.808V6.632H94.0486V22.76C94.0486 26.36 93.1126 29.012 91.2406 30.716C89.3686 32.42 86.6806 33.272 83.1766 33.272ZM82.3126 25.064C80.5126 25.064 78.8806 24.68 77.4166 23.912C75.9766 23.12 74.8126 22.028 73.9246 20.636C73.0606 19.22 72.6286 17.576 72.6286 15.704C72.6286 13.808 73.0606 12.164 73.9246 10.772C74.8126 9.356 75.9766 8.264 77.4166 7.496C78.8806 6.728 80.5126 6.344 82.3126 6.344C83.9446 6.344 85.3846 6.68 86.6326 7.352C87.8806 8 88.8526 9.02 89.5486 10.412C90.2446 11.78 90.5926 13.544 90.5926 15.704C90.5926 17.84 90.2446 19.604 89.5486 20.996C88.8526 22.364 87.8806 23.384 86.6326 24.056C85.3846 24.728 83.9446 25.064 82.3126 25.064ZM83.4286 20.456C84.4126 20.456 85.2886 20.264 86.0566 19.88C86.8246 19.472 87.4246 18.908 87.8566 18.188C88.2886 17.468 88.5046 16.64 88.5046 15.704C88.5046 14.744 88.2886 13.916 87.8566 13.22C87.4246 12.5 86.8246 11.948 86.0566 11.564C85.2886 11.156 84.4126 10.952 83.4286 10.952C82.4446 10.952 81.5686 11.156 80.8006 11.564C80.0326 11.948 79.4206 12.5 78.9646 13.22C78.5326 13.916 78.3166 14.744 78.3166 15.704C78.3166 16.64 78.5326 17.468 78.9646 18.188C79.4206 18.908 80.0326 19.472 80.8006 19.88C81.5686 20.264 82.4446 20.456 83.4286 20.456ZM115.087 26V5.552H107.023V0.799998H128.983V5.552H120.919V26H115.087ZM139.475 26.288C137.867 26.288 136.427 25.976 135.155 25.352C133.907 24.728 132.935 23.78 132.239 22.508C131.543 21.212 131.195 19.568 131.195 17.576V6.632H136.811V16.748C136.811 18.356 137.147 19.544 137.819 20.312C138.515 21.056 139.487 21.428 140.735 21.428C141.599 21.428 142.367 21.248 143.039 20.888C143.711 20.504 144.239 19.928 144.623 19.16C145.007 18.368 145.199 17.384 145.199 16.208V6.632H150.815V26H145.487V20.672L146.459 22.22C145.811 23.564 144.851 24.584 143.579 25.28C142.331 25.952 140.963 26.288 139.475 26.288ZM163.938 26.288C161.658 26.288 159.882 25.712 158.61 24.56C157.338 23.384 156.702 21.644 156.702 19.34V2.348H162.318V19.268C162.318 20.084 162.534 20.72 162.966 21.176C163.398 21.608 163.986 21.824 164.73 21.824C165.618 21.824 166.374 21.584 166.998 21.104L168.51 25.064C167.934 25.472 167.238 25.784 166.422 26C165.63 26.192 164.802 26.288 163.938 26.288ZM153.714 11.384V7.064H167.142V11.384H153.714ZM180.281 26.288C178.217 26.288 176.381 25.856 174.773 24.992C173.189 24.128 171.929 22.952 170.993 21.464C170.081 19.952 169.625 18.236 169.625 16.316C169.625 14.372 170.081 12.656 170.993 11.168C171.929 9.656 173.189 8.48 174.773 7.64C176.381 6.776 178.217 6.344 180.281 6.344C182.321 6.344 184.145 6.776 185.753 7.64C187.361 8.48 188.621 9.644 189.533 11.132C190.445 12.62 190.901 14.348 190.901 16.316C190.901 18.236 190.445 19.952 189.533 21.464C188.621 22.952 187.361 24.128 185.753 24.992C184.145 25.856 182.321 26.288 180.281 26.288ZM180.281 21.68C181.217 21.68 182.057 21.464 182.801 21.032C183.545 20.6 184.133 19.988 184.565 19.196C184.997 18.38 185.213 17.42 185.213 16.316C185.213 15.188 184.997 14.228 184.565 13.436C184.133 12.644 183.545 12.032 182.801 11.6C182.057 11.168 181.217 10.952 180.281 10.952C179.345 10.952 178.505 11.168 177.761 11.6C177.017 12.032 176.417 12.644 175.961 13.436C175.529 14.228 175.313 15.188 175.313 16.316C175.313 17.42 175.529 18.38 175.961 19.196C176.417 19.988 177.017 20.6 177.761 21.032C178.505 21.464 179.345 21.68 180.281 21.68ZM194.655 26V6.632H200.019V12.104L199.263 10.52C199.839 9.152 200.763 8.12 202.035 7.424C203.307 6.704 204.855 6.344 206.679 6.344V11.528C206.439 11.504 206.223 11.492 206.031 11.492C205.839 11.468 205.635 11.456 205.419 11.456C203.883 11.456 202.635 11.9 201.675 12.788C200.739 13.652 200.271 15.008 200.271 16.856V26H194.655Z" fill="white"/>
</svg>
